<?xml version="1.0" standalone="no"?>
<!DOCTYPE svg PUBLIC "-//W3C//DTD SVG 20010904//EN"
 "http://www.w3.org/TR/2001/REC-SVG-20010904/DTD/svg10.dtd">
<svg version="1.0" xmlns="http://www.w3.org/2000/svg"
 width="1024.000000pt" height="1024.000000pt" viewBox="0 0 1024.000000 1024.000000"
 preserveAspectRatio="xMidYMid meet">

<g transform="translate(0.000000,1024.000000) scale(0.100000,-0.100000)"
fill="#312e81" stroke="none">
<path d="M1840 9210 c-109 -23 -168 -43 -253 -86 -295 -147 -486 -400 -564
-744 -16 -69 -17 -301 -21 -3115 -2 -2113 0 -3072 8 -3146 41 -411 306 -744
696 -875 186 -62 -76 -58 3359 -60 1911 -1 3163 2 3215 8 484 53 834 362 938
826 16 72 17 279 17 3182 l0 3105 -22 95 c-53 232 -139 387 -304 546 -113 107
-230 178 -384 231 -165 56 33 53 -3419 52 -3040 0 -3185 -1 -3266 -19z m5773
-1051 c47 -13 111 -69 140 -123 l22 -41 3 -1615 c2 -1175 0 -1626 -8 -1655
-57 -202 -326 -231 -405 -43 -13 33 -15 152 -15 978 l0 940 -2390 0 -2390 0 0
-1910 0 -1910 1293 -1 c710 0 1303 -3 1317 -5 39 -7 97 -51 126 -94 53 -79 40
-191 -29 -258 -68 -66 26 -62 -1531 -62 -1558 0 -1468 -4 -1535 62 -18 18 -41
49 -52 70 -19 37 -19 90 -17 2786 l3 2748 25 37 c29 42 82 81 131 96 49 14
5262 14 5312 0z m-807 -2225 c20 -10 49 -35 65 -57 71 -97 37 -232 -72 -288
-38 -19 -68 -19 -1839 -19 -1936 0 -1838 -2 -1893 48 -34 31 -60 94 -60 147 0
74 34 128 103 166 40 22 220 24 1997 22 1551 -2 1665 -3 1699 -19z m-950 -909
c45 -26 94 -106 94 -153 0 -84 -63 -169 -141 -191 -34 -9 -350 -11 -1359 -9
l-1315 3 -38 23 c-78 49 -114 170 -74 247 19 37 64 81 97 94 16 6 500 10 1359
10 l1334 1 43 -25z m-835 -900 c61 -43 84 -86 84 -161 0 -78 -35 -136 -100
-165 -42 -19 -76 -19 -962 -19 l-918 0 -39 28 c-122 85 -101 268 39 333 38 18
80 19 947 16 l906 -2 43 -30z m2456 4 c44 -16 90 -67 103 -113 11 -39 9 -53
-20 -147 -17 -57 -43 -142 -56 -189 -139 -471 -192 -650 -296 -995 -66 -220
-129 -415 -141 -434 -28 -46 -112 -85 -164 -75 -84 15 -140 72 -149 151 -5 41
12 105 119 458 69 226 173 570 232 765 58 195 115 385 127 422 41 135 139 197
245 157z m-915 -155 c21 -13 44 -37 53 -54 21 -41 21 -119 0 -161 -9 -18 -139
-157 -288 -306 l-271 -273 265 -267 c206 -209 268 -276 276 -305 25 -86 -6
-181 -70 -215 -42 -22 -123 -21 -169 3 -20 10 -184 165 -366 344 -297 293
-332 329 -342 370 -14 53 -9 103 16 156 20 44 611 646 682 696 24 17 56 34 70
38 40 13 102 1 144 -26z m1464 -27 c40 -21 649 -641 680 -692 30 -50 37 -96
24 -147 -10 -38 -52 -84 -371 -399 -386 -383 -387 -383 -472 -368 -74 12 -125
69 -134 146 -9 89 8 112 299 407 l266 269 -250 262 c-138 145 -258 275 -268
291 -58 87 -14 215 83 248 43 15 95 8 143 -17z"/>
<path d="M2570 7375 l0 -335 2390 0 2390 0 0 335 0 335 -2390 0 -2390 0 0
-335z"/>
</g>
</svg>
